<svg width="128" height="128" viewBox="0 0 128 128" fill="none" xmlns="http://www.w3.org/2000/svg">
<rect width="128" height="128" rx="64" fill="#FFF7F7"/>
<circle cx="15" cy="15" r="15" transform="matrix(1 0 0 -1 25 82)" fill="#FFAEAE"/>
<circle cx="15" cy="15" r="15" transform="matrix(1 0 0 -1 65 94)" fill="#FFAEAE"/>
<circle cx="15" cy="15" r="15" transform="matrix(1 0 0 -1 72 91)" fill="#FFAEAE"/>
<circle cx="15" cy="15" r="15" transform="matrix(1 0 0 -1 35 67)" fill="#FFAEAE"/>
<circle cx="15" cy="15" r="15" transform="matrix(1 0 0 -1 44 85)" fill="#FFAEAE"/>
<circle cx="15" cy="15" r="15" transform="matrix(1 0 0 -1 48 63)" fill="#FFAEAE"/>
<circle cx="15" cy="15" r="15" transform="matrix(1 0 0 -1 65 82)" fill="#FFAEAE"/>
<circle cx="15" cy="15" r="15" transform="matrix(1 0 0 -1 74 79)" fill="#FFAEAE"/>
<circle cx="15" cy="15" r="15" transform="matrix(1 0 0 -1 69 64)" fill="#FFAEAE"/>
<circle cx="12" cy="12" r="12" transform="matrix(1 0 0 -1 65 64)" fill="#FFAEAE"/>
<circle cx="12" cy="12" r="12" transform="matrix(1 0 0 -1 62 58)" fill="#FFAEAE"/>
<circle cx="12" cy="12" r="12" transform="matrix(1 0 0 -1 28 67)" fill="#FFAEAE"/>
<circle cx="12" cy="12" r="12" transform="matrix(1 0 0 -1 38 85)" fill="#FFAEAE"/>
<circle cx="12" cy="12" r="12" transform="matrix(1 0 0 -1 55 88)" fill="#FFAEAE"/>
</svg>
